<svg width="45" height="45" viewBox="0 0 45 45" fill="none" xmlns="http://www.w3.org/2000/svg">
<path d="M18.4957 44.6196C10.9796 43.2307 4.55683 37.9747 1.49575 30.6762C-0.0621209 26.8908 -0.472087 21.2263 0.593825 17.1141C3.32693 6.32978 13.5488 -0.914244 24.5085 0.0933841C27.0503 0.338483 30.33 1.15548 31.2046 1.72737C31.5599 1.97247 31.5053 2.10864 30.8493 2.5716C29.8927 3.3069 29.2915 4.45069 29.2915 5.56725C29.2915 6.22085 29.1821 6.38425 28.8815 6.24808C25.3285 4.91366 20.9555 4.77749 17.4024 5.92128C7.86389 8.94417 2.91697 18.7753 6.08737 28.3342C6.85264 30.649 8.90247 33.6991 10.8703 35.4421C12.7835 37.185 16.7192 39.1458 19.015 39.5543C23.6339 40.3985 29.1548 39.3092 32.2159 36.9671C33.0905 36.3135 33.1451 36.2863 34.3477 36.722C35.031 36.9399 36.0969 37.1305 36.6709 37.1305H37.7641V34.1349C37.7641 31.5749 37.8461 30.9486 38.42 29.6686C41.0438 23.7862 40.2512 17.1414 36.2609 11.8037C35.3043 10.5509 35.0583 10.0335 35.3316 9.92456C36.1516 9.65223 37.4635 8.04547 37.6274 7.06508L37.8461 6.05745L38.7753 6.95615C41.1531 9.2165 43.5036 13.3832 44.4875 17.1141C45.1708 19.7013 45.1708 25.3658 44.4875 27.8712C41.2625 39.6087 30.1387 46.7711 18.4957 44.6196V44.6196Z" fill="white"/>
<path d="M19.5068 35.7678C16.6916 35.0325 14.9425 34.0249 12.8653 31.9279C10.1322 29.2046 8.79297 26.0455 8.79297 22.2874C8.79297 13.954 16.391 7.3091 24.5903 8.50736C30.1112 9.29713 34.8668 13.491 36.2607 18.747C36.5887 20.027 36.6707 22.0423 36.6707 28.3331V36.3124L35.7961 36.1218C34.4842 35.8767 33.3909 35.2776 32.2704 34.2155L31.2864 33.2896L29.9472 34.1338C27.0775 35.9312 22.7865 36.612 19.5068 35.7678ZM25.1096 29.368C31.5871 27.4617 31.8877 17.7122 25.5469 15.3429C20.4087 13.4366 15.3251 16.9224 15.3251 22.3418C15.3251 27.4617 20.0534 30.8658 25.1096 29.368Z" fill="white"/>
<path d="M32.1617 9.08107C30.4125 8.37301 29.6199 5.89479 30.6038 4.28803C31.2871 3.19871 32.8723 2.43618 33.9655 2.68128C35.1681 2.95361 36.6167 4.31527 36.808 5.37736C37.2999 7.88281 34.5395 10.0615 32.1617 9.08107Z" fill="white"/>
</svg>
